<svg xmlns="http://www.w3.org/2000/svg" version="1.1" xmlns:xlink="http://www.w3.org/1999/xlink" xmlns:svgjs="http://svgjs.dev/svgjs" width="1000" height="1000" viewBox="0 0 1000 1000"><rect width="1000" height="1000" fill="#ffffff"></rect><g transform="matrix(0.7,0,0,0.7,149.57605563665675,420.0680445397679)"><svg viewBox="0 0 396 91" data-background-color="#444444" preserveAspectRatio="xMidYMid meet" height="229" width="1000" xmlns="http://www.w3.org/2000/svg" xmlns:xlink="http://www.w3.org/1999/xlink"><g id="tight-bounds" transform="matrix(1,0,0,1,0.24008861730862918,-0.12364146777642304)"><svg viewBox="0 0 395.52 91.24731287738754" height="91.24731287738754" width="395.52"><g><svg viewBox="0 0 395.52 91.24731287738754" height="91.24731287738754" width="395.52"><g><svg viewBox="0 0 395.52 91.24731287738754" height="91.24731287738754" width="395.52"><g id="textblocktransform"><svg viewBox="0 0 395.52 91.24731287738754" height="91.24731287738754" width="395.52" id="textblock"><g><svg viewBox="0 0 395.52 91.24731287738754" height="91.24731287738754" width="395.52"><path d="M394.594 19.571C392.735 10.099 387.435 7.466 387.435 7.466 371.165-2.289 350.86-0.187 332.619 1.215 300.414 1.272 268.339 3.356 236.208 4.473 168.767 4.644 100.749 1.84 33.643 8.754 27.339 10.876-6.54 9.171 1.121 20.783 3.129 25.614 10.456 30.974 10.232 35.407 11.236 36.184 12.631 34.403 13.226 35.521 15.309 38.533 18.711 37.112 21.501 38.893 17.614 43.647 20.403 47.606 23.062 51.755 18.377 52.834 12.371 52.323 9.675 55.903 9.396 58.498 7.89 58.006 6.235 57.892 5.026 57.816 2.59 58.101 2.999 58.915 4.394 61.7-1.594 63.31 2.162 66.038-0.422 68.993 3.948 71.55 3.353 74.751 3.278 75.395 3.687 75.945 4.338 76.096 7.22 76.911 3.018 78.502 3.464 80.226 33.029 92.008 65.104 83.863 95.394 89.281 103.259 85.492 97.346 90.626 100.489 89.83 102.943 88.902 104.728 92.747 107.499 90.569 107.927 89.944 107.276 88.466 108.8 88.75 109.6 88.902 110.307 88.864 110.418 87.992 110.586 86.685 109.117 87.5 108.726 86.818 112.947 83.37 111.906 91.573 115.866 91.232 115.68 90.228 114.528 88.788 116.889 88.978 119.232 87.538 119.306 86.344 121.389 89.584 121.463 90.285 121.835 90.777 122.43 91.118 128.938 87.595 135.409 92.368 142.233 90.777 146.417 89.034 150.433 91.724 154.672 91.061 156.16 90.531 157.666 89.584 159.098 91.175 176.632 91.516 195.319 90.095 211.943 91.232 256.364 89.11 303.836 92.103 350.674 89.3 361.719 88.22 373.192 86.685 383.958 85.454 383.958 85.454 392.679 82.082 392.679 66.928S394.538 53.668 394.817 41.601C395.096 29.535 396.398 29.042 394.538 19.571Z" opacity="1" fill="#000000" data-fill-palette-color="tertiary"></path><g transform="matrix(1,0,0,1,55.76832,26.230666666666668)"><svg width="283.98335999999995" viewBox="5 -32.5 243.42 33.25" height="38.785979544054214" data-palette-color="#444444"><path d="M8.5-26.9L8.5 0 5 0 5-32.5 10.25-32.5 15.95-11.05 21.7-32.5 26.95-32.5 26.95 0 23.45 0 23.45-26.9 17.6-5 14.35-5 8.5-26.9ZM41.45-3L43.95-3 43.95 0 35.45 0 35.45-3 37.95-3 37.95-29.5 35.45-29.5 35.45-32.5 43.95-32.5 43.95-29.5 41.45-29.5 41.45-3ZM55.95-11.5L55.95 0 52.45 0 52.45-32.5 60-32.5Q63.9-32.5 65.92-30.65 67.95-28.8 67.95-25.5L67.95-25.5 67.95-18.5Q67.95-13.4 63.55-12L63.55-12 69.7 0 65.85 0 60-11.5 55.95-11.5ZM64.45-18.5L64.45-18.5 64.45-25.5Q64.45-27.4 63.3-28.45 62.15-29.5 60-29.5L60-29.5 55.95-29.5 55.95-14.5 60-14.5Q64.45-14.5 64.45-18.5ZM81.19-3L83.69-3 83.69 0 75.19 0 75.19-3 77.69-3 77.69-29.5 75.19-29.5 75.19-32.5 83.69-32.5 83.69-29.5 81.19-29.5 81.19-3ZM107.19-15L107.19 0 103.69 0 103.69-32.5 117.44-32.5 117.44-29.5 107.19-29.5 107.19-18 115.44-18 115.44-15 107.19-15ZM137.44-6.25L137.44-6.25 137.44-32.5 140.94-32.5 140.94-6.25Q140.94-2.9 138.81-1.07 136.69 0.75 132.46 0.75 128.24 0.75 126.09-1.07 123.94-2.9 123.94-6.25L123.94-6.25 123.94-32.5 127.44-32.5 127.44-6.25Q127.44-2.25 132.44-2.25 137.44-2.25 137.44-6.25ZM153.93-11.5L153.93 0 150.43 0 150.43-32.5 157.98-32.5Q161.88-32.5 163.91-30.65 165.93-28.8 165.93-25.5L165.93-25.5 165.93-18.5Q165.93-13.4 161.53-12L161.53-12 167.68 0 163.83 0 157.98-11.5 153.93-11.5ZM162.43-18.5L162.43-18.5 162.43-25.5Q162.43-27.4 161.28-28.45 160.13-29.5 157.98-29.5L157.98-29.5 153.93-29.5 153.93-14.5 157.98-14.5Q162.43-14.5 162.43-18.5ZM178.18-26.9L178.18 0 174.68 0 174.68-32.5 179.93-32.5 185.63-11.05 191.38-32.5 196.63-32.5 196.63 0 193.13 0 193.13-26.9 187.28-5 184.03-5 178.18-26.9ZM203.63 0L210.98-32.5 216.23-32.5 223.58 0 220.08 0 218.38-7.5 208.83-7.5 207.13 0 203.63 0ZM217.68-10.5L213.58-28.6 209.48-10.5 217.68-10.5ZM234.07-25L234.07 0 230.57 0 230.57-32.5 234.07-32.5 244.92-7.5 244.92-32.5 248.42-32.5 248.42 0 244.92 0 234.07-25Z" opacity="1" transform="matrix(1,0,0,1,0,0)" fill="#ffffff" class="wordmark-text-0" data-fill-palette-color="quaternary" id="text-0"></path></svg></g></svg></g></svg></g></svg></g><g></g></svg></g><defs></defs></svg><rect width="395.52" height="91.24731287738754" fill="none" stroke="none" visibility="hidden"></rect></g></svg></g></svg>